<svg width="320" height="320" viewBox="0 0 320 320" fill="none" xmlns="http://www.w3.org/2000/svg">
  <rect width="320" height="320" rx="48" fill="#0F172A"/>
  <circle cx="160" cy="122" r="56" fill="#2563EB"/>
  <path d="M76 268C91 212 120 184 160 184C200 184 229 212 244 268" fill="#E2E8F0"/>
  <path d="M126 124C126 105.222 141.222 90 160 90C178.778 90 194 105.222 194 124V146C194 164.778 178.778 180 160 180C141.222 180 126 164.778 126 146V124Z" fill="#F5D0A9"/>
  <path d="M119 120C119 98.461 136.461 81 158 81H162C183.539 81 201 98.461 201 120V129H119V120Z" fill="#172554"/>
</svg>
