<svg width="320" height="320" viewBox="0 0 320 320" fill="none" xmlns="http://www.w3.org/2000/svg">
  <rect width="320" height="320" rx="48" fill="#111827"/>
  <circle cx="160" cy="122" r="56" fill="#F59E0B"/>
  <path d="M74 268C88 210 117 181 160 181C203 181 232 210 246 268" fill="#F8FAFC"/>
  <path d="M126 124C126 105.222 141.222 90 160 90C178.778 90 194 105.222 194 124V146C194 164.778 178.778 180 160 180C141.222 180 126 164.778 126 146V124Z" fill="#FED7AA"/>
  <path d="M121 122C121 100.461 138.461 83 160 83C181.539 83 199 100.461 199 122V129H121V122Z" fill="#1F2937"/>
</svg>
