<svg width="1600" height="1000" viewBox="0 0 1600 1000" fill="none" xmlns="http://www.w3.org/2000/svg">
  <rect width="1600" height="1000" fill="#F8F5EE"/>
  <rect x="84" y="84" width="1432" height="832" rx="40" fill="#FFFDF8" stroke="#E5E7EB" stroke-width="8"/>
  <rect x="176" y="164" width="500" height="620" rx="28" fill="#111827"/>
  <rect x="742" y="184" width="576" height="28" rx="14" fill="#D1D5DB"/>
  <rect x="742" y="238" width="468" height="28" rx="14" fill="#D1D5DB"/>
  <rect x="742" y="320" width="604" height="22" rx="11" fill="#E5E7EB"/>
  <rect x="742" y="366" width="604" height="22" rx="11" fill="#E5E7EB"/>
  <rect x="742" y="412" width="552" height="22" rx="11" fill="#E5E7EB"/>
  <rect x="742" y="540" width="186" height="54" rx="27" fill="#92400E"/>
  <circle cx="294" cy="284" r="92" fill="#F59E0B"/>
  <path d="M210 644C230 540 283 492 385 492C487 492 540 540 560 644" fill="#F8FAFC"/>
  <rect x="742" y="680" width="258" height="164" rx="24" fill="#FEF3C7"/>
  <rect x="1026" y="680" width="258" height="164" rx="24" fill="#DBEAFE"/>
</svg>
